# xmcd CD database file generated by OrangeCD 5.2
#
# Track frame offsets:
#	150
#	12373
#	23932
#	35927
#	46987
#	61442
#	76911
#	88581
#	97705
#	108568
#
# Disc length: 1627 seconds
#
# Revision: 0
# Processed by: cddbd v1.5.1PL0 Copyright (c) Steve Scherf et al.
# Submitted via: OrangeCD 5.2
#
DISCID=7706590a
DTITLE=Johnny Cash - John R. Cash
DYEAR=1975
DGENRE=Country
TTITLE0=My Old Kentucky Home
TTITLE1=Hard Times Coming
TTITLE2=The Lady Came From Baltimore
TTITLE3=Lonesome To The Bone
TTITLE4=The Night They Drove Old Dixie Down
TTITLE5=Clean Your Own Tables
TTITLE6=Jesus Was Our Saviour
TTITLE7=Reason To Believe
TTITLE8=Cocaine Carolina
TTITLE9=Smokey Factory Blues
EXTD=
EXTT0=
EXTT1=
EXTT2=
EXTT3=
EXTT4=
EXTT5=
EXTT6=
EXTT7=
EXTT8=
EXTT9=
PLAYORDER=
